<?xml version="1.0" encoding="UTF-8" standalone="no"?>
<svg
   xmlns:dc="http://purl.org/dc/elements/1.1/"
   xmlns:cc="http://creativecommons.org/ns#"
   xmlns:rdf="http://www.w3.org/1999/02/22-rdf-syntax-ns#"
   xmlns:svg="http://www.w3.org/2000/svg"
   xmlns="http://www.w3.org/2000/svg"
   xmlns:sodipodi="http://sodipodi.sourceforge.net/DTD/sodipodi-0.dtd"
   xmlns:inkscape="http://www.inkscape.org/namespaces/inkscape"
   width="76.701714mm"
   height="76.701714mm"
   viewBox="0 0 76.701714 76.701713"
   version="1.1"
   id="svg1678"
   inkscape:version="1.0.1 (3bc2e813f5, 2020-09-07)"
   sodipodi:docname="jv2.svg"
   inkscape:export-filename="/home/tris/src/jv2/extra/jv2-1024.png"
   inkscape:export-xdpi="339.10001"
   inkscape:export-ydpi="339.10001">
  <defs
     id="defs1672" />
  <sodipodi:namedview
     id="base"
     pagecolor="#ffffff"
     bordercolor="#666666"
     borderopacity="1.0"
     inkscape:pageopacity="0.0"
     inkscape:pageshadow="2"
     inkscape:zoom="0.98994949"
     inkscape:cx="475.71938"
     inkscape:cy="492.83772"
     inkscape:document-units="mm"
     inkscape:current-layer="layer1"
     inkscape:document-rotation="0"
     showgrid="false"
     inkscape:window-width="3840"
     inkscape:window-height="1531"
     inkscape:window-x="0"
     inkscape:window-y="32"
     inkscape:window-maximized="1"
     fit-margin-top="0"
     fit-margin-left="0"
     fit-margin-right="0"
     fit-margin-bottom="0" />
  <metadata
     id="metadata1675">
    <rdf:RDF>
      <cc:Work
         rdf:about="">
        <dc:format>image/svg+xml</dc:format>
        <dc:type
           rdf:resource="http://purl.org/dc/dcmitype/StillImage" />
        <dc:title />
      </cc:Work>
    </rdf:RDF>
  </metadata>
  <g
     inkscape:label="Layer 1"
     inkscape:groupmode="layer"
     id="layer1"
     transform="translate(-41.542924,-54.680311)">
    <g
       id="g2564"
       transform="translate(0,2.3824873)">
      <path
         id="rect1455-6-6"
         style="fill:#ffffff;fill-opacity:1;stroke:#004100;stroke-width:1.71244;stroke-linecap:round;stroke-miterlimit:4;stroke-dasharray:none;stroke-opacity:1"
         d="m 117.38841,125.21767 c 0,0.30091 -0.24225,0.54316 -0.54316,0.54316 H 47.419272 c -0.300911,0 -0.543158,-0.24225 -0.543158,-0.54316 l 4.407019,-4.5099 h 4.407019 4.407019 4.40702 4.407019 4.407015 4.407019 4.407019 4.407017 4.407019 4.407015 4.407024 4.407022 4.40702 4.40702 z"
         sodipodi:nodetypes="cssccccccccccccccccc" />
      <path
         id="rect1455-9-9"
         style="fill:#ffffff;fill-opacity:1;stroke:#004100;stroke-width:1.71244;stroke-linecap:round;stroke-miterlimit:4;stroke-dasharray:none;stroke-opacity:1"
         d="m 117.38841,122.34961 c 0,0.30091 -0.24225,0.54316 -0.54316,0.54316 H 47.419272 c -0.300911,0 -0.543158,-0.24225 -0.543158,-0.54316 l 4.407019,-4.5099 h 4.407019 4.407019 4.40702 4.407019 4.407015 4.407019 4.407019 4.407017 4.407019 4.407015 4.407024 4.407022 4.40702 4.40702 z"
         sodipodi:nodetypes="cssccccccccccccccccc" />
      <path
         id="rect1455-1-4"
         style="fill:#004100;fill-opacity:1;stroke:#004100;stroke-width:1.71244;stroke-linecap:round;stroke-miterlimit:4;stroke-dasharray:none;stroke-opacity:1"
         d="m 117.38841,119.48154 c 0,0.30091 -0.24225,0.54316 -0.54316,0.54316 H 47.419272 c -0.300911,0 -0.543158,-0.24225 -0.543158,-0.54316 l 4.407019,-4.5099 h 4.407019 4.407019 4.40702 4.407019 4.407015 4.407019 4.407019 4.407017 4.407019 4.407015 4.407024 4.407022 4.40702 4.40702 z"
         sodipodi:nodetypes="cssccccccccccccccccc" />
      <path
         id="rect1455-93-6"
         style="fill:#ffffff;fill-opacity:1;stroke:#00005e;stroke-width:1.71244;stroke-linecap:round;stroke-miterlimit:4;stroke-dasharray:none;stroke-opacity:1"
         d="m 112.91144,115.00457 c 0,0.30091 -0.24225,0.54316 -0.54316,0.54316 H 42.942303 c -0.300912,0 -0.543159,-0.24225 -0.543159,-0.54316 l 4.407015,-4.5099 h 4.407019 4.407019 4.407019 4.40702 4.407019 4.407019 4.407019 4.407018 4.407018 4.40702 4.407015 4.407019 4.407027 4.40701 z"
         sodipodi:nodetypes="cssccccccccccccccccc" />
      <path
         id="rect1455-49-0"
         style="fill:#ffffff;fill-opacity:1;stroke:#00005e;stroke-width:1.71244;stroke-linecap:round;stroke-miterlimit:4;stroke-dasharray:none;stroke-opacity:1"
         d="m 112.91144,112.1365 c 0,0.30091 -0.24225,0.54316 -0.54316,0.54316 H 42.942303 c -0.300912,0 -0.543159,-0.24225 -0.543159,-0.54316 l 4.407015,-4.50989 h 4.407019 4.407023 4.407015 4.40702 4.407019 4.407019 4.407019 4.407018 4.407018 4.407015 4.40702 4.407019 4.407027 4.40701 z"
         sodipodi:nodetypes="cssccccccccccccccccc" />
      <path
         id="rect1455-2-5"
         style="fill:#ffffff;fill-opacity:1;stroke:#00005e;stroke-width:1.71244;stroke-linecap:round;stroke-miterlimit:4;stroke-dasharray:none;stroke-opacity:1"
         d="m 112.91144,109.26845 c 0,0.30091 -0.24225,0.54316 -0.54316,0.54316 H 42.942303 c -0.300912,0 -0.543159,-0.24225 -0.543159,-0.54316 l 4.407015,-4.5099 h 4.407019 4.407023 4.407015 4.40702 4.407019 4.407019 4.407019 4.407018 4.407018 4.407015 4.40702 4.407019 4.407027 4.40701 z"
         sodipodi:nodetypes="cssccccccccccccccccc" />
      <path
         id="rect1455-4-0"
         style="fill:#ffffff;fill-opacity:1;stroke:#00005e;stroke-width:1.71244;stroke-linecap:round;stroke-miterlimit:4;stroke-dasharray:none;stroke-opacity:1"
         d="m 112.91144,106.40039 c 0,0.30091 -0.24225,0.54316 -0.54316,0.54316 H 42.942303 c -0.300912,0 -0.543159,-0.24225 -0.543159,-0.54316 l 4.407015,-4.5099 h 4.407019 4.407023 4.407015 4.40702 4.407019 4.407019 4.407019 4.407018 4.407018 4.407015 4.40702 4.407019 4.407027 4.40701 z"
         sodipodi:nodetypes="cssccccccccccccccccc" />
      <path
         id="rect1455-5-2"
         style="fill:#ffffff;fill-opacity:1;stroke:#00005e;stroke-width:1.71244;stroke-linecap:round;stroke-miterlimit:4;stroke-dasharray:none;stroke-opacity:1"
         d="m 112.91144,103.53233 c 0,0.30091 -0.24225,0.54316 -0.54316,0.54316 H 42.942303 c -0.300912,0 -0.543159,-0.24225 -0.543159,-0.54316 l 4.407015,-4.509894 h 4.407019 4.407023 4.407015 4.40702 4.407019 4.407019 4.407019 4.407018 4.407018 4.407015 4.40702 4.407019 4.407027 4.40701 z"
         sodipodi:nodetypes="cssccccccccccccccccc" />
      <path
         id="rect1455-6-9"
         style="fill:#ffffff;fill-opacity:1;stroke:#00005e;stroke-width:1.71244;stroke-linecap:round;stroke-miterlimit:4;stroke-dasharray:none;stroke-opacity:1"
         d="m 112.91144,100.66427 c 0,0.30091 -0.24225,0.54316 -0.54316,0.54316 H 42.942303 c -0.300912,0 -0.543159,-0.24225 -0.543159,-0.54316 l 4.407015,-4.509894 h 4.407019 4.407023 4.407015 4.40702 4.407019 4.407019 4.407019 4.407018 4.407018 4.407015 4.40702 4.407019 4.407027 4.40701 z"
         sodipodi:nodetypes="cssccccccccccccccccc" />
      <path
         id="rect1455-9-4"
         style="fill:#ffffff;fill-opacity:1;stroke:#00005e;stroke-width:1.71244;stroke-linecap:round;stroke-miterlimit:4;stroke-dasharray:none;stroke-opacity:1"
         d="m 112.91144,97.796213 c 0,0.300908 -0.24225,0.543157 -0.54316,0.543157 H 42.942303 c -0.300912,0 -0.543159,-0.242249 -0.543159,-0.543157 l 4.407015,-4.509897 h 4.407019 4.407023 4.407015 4.40702 4.407019 4.407019 4.407019 4.407018 4.407018 4.407015 4.40702 4.407019 4.407027 4.40701 z"
         sodipodi:nodetypes="cssccccccccccccccccc" />
      <path
         id="rect1455-1-3"
         style="fill:#ffffff;fill-opacity:1;stroke:#00005e;stroke-width:1.71244;stroke-linecap:round;stroke-miterlimit:4;stroke-dasharray:none;stroke-opacity:1"
         d="m 112.91144,94.928152 c 0,0.30091 -0.24225,0.543159 -0.54316,0.543159 H 42.942303 c -0.300912,0 -0.543159,-0.242249 -0.543159,-0.543159 l 4.407015,-4.509895 h 4.407019 4.407023 4.407015 4.40702 4.407019 4.407019 4.407019 4.407018 4.407018 4.407015 4.40702 4.407019 4.407027 4.40701 z"
         sodipodi:nodetypes="cssccccccccccccccccc" />
      <path
         id="rect1455-51"
         style="fill:#00005e;fill-opacity:1;stroke:#00005e;stroke-width:1.71244;stroke-linecap:round;stroke-miterlimit:4;stroke-dasharray:none;stroke-opacity:1"
         d="m 112.91144,92.060092 c 0,0.30091 -0.24225,0.543159 -0.54316,0.543159 H 42.942303 c -0.300912,0 -0.543159,-0.242249 -0.543159,-0.543159 l 4.407015,-4.509896 h 4.407019 4.407019 4.407019 4.40702 4.407019 4.407019 4.407019 4.407018 4.407018 4.40702 4.407015 4.407019 4.407027 4.40701 z"
         sodipodi:nodetypes="cssccccccccccccccccc" />
      <path
         id="rect1455-93"
         style="fill:#ffffff;fill-opacity:1;stroke:#610000;stroke-width:1.71244;stroke-linecap:round;stroke-miterlimit:4;stroke-dasharray:none;stroke-opacity:1"
         d="m 117.38841,88.42255 c 0,0.300911 -0.24225,0.54316 -0.54316,0.54316 H 47.419272 c -0.300911,0 -0.543158,-0.242249 -0.543158,-0.54316 l 4.407019,-4.509896 h 4.407019 4.407019 4.40702 4.407019 4.407015 4.407019 4.407019 4.407017 4.407019 4.407019 4.40702 4.407022 4.40702 4.40702 z"
         sodipodi:nodetypes="cssccccccccccccccccc" />
      <path
         id="rect1455-49"
         style="fill:#ffffff;fill-opacity:1;stroke:#610000;stroke-width:1.71244;stroke-linecap:round;stroke-miterlimit:4;stroke-dasharray:none;stroke-opacity:1"
         d="m 117.38841,85.554491 c 0,0.300909 -0.24225,0.543158 -0.54316,0.543158 H 47.419272 c -0.300911,0 -0.543158,-0.242249 -0.543158,-0.543158 l 4.407019,-4.509897 h 4.407019 4.407019 4.40702 4.407019 4.407015 4.407019 4.407019 4.407017 4.407019 4.407019 4.40702 4.407022 4.40702 4.40702 z"
         sodipodi:nodetypes="cssccccccccccccccccc" />
      <path
         id="rect1455-2"
         style="fill:#ffffff;fill-opacity:1;stroke:#610000;stroke-width:1.71244;stroke-linecap:round;stroke-miterlimit:4;stroke-dasharray:none;stroke-opacity:1"
         d="m 117.38841,82.686431 c 0,0.300909 -0.24225,0.543158 -0.54316,0.543158 H 47.419272 c -0.300911,0 -0.543158,-0.242249 -0.543158,-0.543158 l 4.407019,-4.509897 h 4.407019 4.407019 4.40702 4.407019 4.407015 4.407019 4.407019 4.407017 4.407019 4.407019 4.40702 4.407022 4.40702 4.40702 z"
         sodipodi:nodetypes="cssccccccccccccccccc" />
      <path
         id="rect1455-4"
         style="fill:#ffffff;fill-opacity:1;stroke:#610000;stroke-width:1.71244;stroke-linecap:round;stroke-miterlimit:4;stroke-dasharray:none;stroke-opacity:1"
         d="m 117.38841,79.818371 c 0,0.300912 -0.24225,0.543159 -0.54316,0.543159 H 47.419272 c -0.300911,0 -0.543158,-0.242247 -0.543158,-0.543159 l 4.407019,-4.509898 h 4.407019 4.407019 4.40702 4.407019 4.407015 4.407019 4.407019 4.407017 4.407019 4.407019 4.40702 4.407022 4.40702 4.40702 z"
         sodipodi:nodetypes="cssccccccccccccccccc" />
      <path
         id="rect1455-5"
         style="fill:#ffffff;fill-opacity:1;stroke:#610000;stroke-width:1.71244;stroke-linecap:round;stroke-miterlimit:4;stroke-dasharray:none;stroke-opacity:1"
         d="m 117.38841,76.95031 c 0,0.300912 -0.24225,0.543159 -0.54316,0.543159 H 47.419272 c -0.300911,0 -0.543158,-0.242247 -0.543158,-0.543159 l 4.407019,-4.509893 h 4.407019 4.407019 4.40702 4.407019 4.407015 4.407019 4.407019 4.407017 4.407019 4.407019 4.40702 4.407022 4.40702 4.40702 z"
         sodipodi:nodetypes="cssccccccccccccccccc" />
      <path
         id="rect1455-6"
         style="fill:#ffffff;fill-opacity:1;stroke:#610000;stroke-width:1.71244;stroke-linecap:round;stroke-miterlimit:4;stroke-dasharray:none;stroke-opacity:1"
         d="m 117.38841,74.082254 c 0,0.300907 -0.24225,0.543159 -0.54316,0.543159 H 47.419272 c -0.300911,0 -0.543158,-0.242252 -0.543158,-0.543159 l 4.407019,-4.509898 h 4.407019 4.407019 4.40702 4.407019 4.407015 4.407019 4.407019 4.407017 4.407019 4.407019 4.40702 4.407022 4.40702 4.40702 z"
         sodipodi:nodetypes="cssccccccccccccccccc" />
      <path
         id="rect1455-9"
         style="fill:#ffffff;fill-opacity:1;stroke:#610000;stroke-width:1.71244;stroke-linecap:round;stroke-miterlimit:4;stroke-dasharray:none;stroke-opacity:1"
         d="m 117.38841,71.214193 c 0,0.300908 -0.24225,0.543159 -0.54316,0.543159 H 47.419272 c -0.300911,0 -0.543158,-0.242251 -0.543158,-0.543159 l 4.407019,-4.509898 h 4.407019 4.407019 4.40702 4.407019 4.407015 4.407019 4.407019 4.407017 4.407019 4.407019 4.40702 4.407022 4.40702 4.40702 z"
         sodipodi:nodetypes="cssccccccccccccccccc" />
      <path
         id="rect1455-1"
         style="fill:#ffffff;fill-opacity:1;stroke:#610000;stroke-width:1.71244;stroke-linecap:round;stroke-miterlimit:4;stroke-dasharray:none;stroke-opacity:1"
         d="m 117.38841,68.346133 c 0,0.300911 -0.24225,0.543158 -0.54316,0.543158 H 47.419272 c -0.300911,0 -0.543158,-0.242247 -0.543158,-0.543158 l 4.407019,-4.509898 h 4.407019 4.407019 4.40702 4.407019 4.407015 4.407023 4.407015 4.407017 4.407019 4.407019 4.40702 4.407022 4.40702 4.40702 z"
         sodipodi:nodetypes="cssccccccccccccccccc" />
      <path
         id="rect1455"
         style="fill:#610000;fill-opacity:1;stroke:#610000;stroke-width:1.71244;stroke-linecap:round;stroke-miterlimit:4;stroke-dasharray:none;stroke-opacity:1"
         d="m 117.38841,65.478072 c 0,0.300912 -0.24225,0.543159 -0.54316,0.543159 H 47.419272 c -0.300911,0 -0.543158,-0.242247 -0.543158,-0.543159 l 4.407019,-4.509894 c 0,0 3.105773,-3.389649 4.407019,-4.510178 1.301246,-1.120529 4.407019,-0.904925 4.407019,-0.904925 h 4.40702 4.407019 4.407015 4.407019 4.407019 4.407017 4.407019 4.407019 4.40702 4.407022 c 0,0 3.38036,-0.145766 4.40702,0.904925 l 4.40702,4.510178 z"
         sodipodi:nodetypes="csscczcccccccccccscc" />
      <path
         d="m 69.032878,70.223188 h -0.05491 0.08237 z m 2.278861,-2.416139 q 0,0.960964 -0.63149,1.702278 -0.604036,0.713861 -1.565004,0.713861 h -0.08237 -0.05491 q -0.137283,0 -0.411849,-0.05491 v -0.05492 q -0.0549,-0.164733 -0.0549,-0.274558 0,-0.356928 0.219645,-0.631489 0.247108,-0.274562 0.247108,-0.713861 v -0.10982 l -0.02745,-0.164742 q -0.576578,0.137279 -0.906052,0.549124 -0.302016,0.384386 -0.494211,0.906051 -0.164733,0.494216 -0.274558,1.070789 -0.109828,0.549123 -0.274561,0.988422 -0.604036,-0.02745 -1.482634,-0.439299 -0.878597,-0.41184 -1.702278,-1.015876 -0.796231,-0.63149 -1.372809,-1.372804 -0.576581,-0.741319 -0.576581,-1.455179 0,-0.466749 -0.384387,-0.906052 -0.384382,-0.466753 -0.713856,-0.960964 -0.329474,-0.521669 -0.356928,-1.125701 -0.02745,-0.604036 0.71386,-1.34535 0.604036,-0.274562 1.208068,-0.604036 0.631489,-0.356928 1.235521,-0.658948 0.631498,-0.302016 1.262988,-0.494211 0.658944,-0.219645 1.372809,-0.219645 1.208067,0.164737 2.141573,0.439294 0.796227,0.219654 1.455179,0.604036 0.686402,0.384386 0.686402,0.93351 -0.05491,0.41184 0.137279,0.768768 0.219645,0.356933 0.686406,0.411845 z m 0.768768,34.457431 q 0,1.45517 -0.439299,2.71815 -0.41184,1.29044 -1.235521,2.22396 -0.823685,0.96094 -2.004299,1.51007 -1.180613,0.57658 -2.6907,0.57658 -0.21965,0 -0.30202,0.13728 -0.08237,0.13729 -0.137283,0.32948 -0.02745,0.19218 -0.08237,0.38437 -0.02745,0.21964 -0.137278,0.32947 -0.164737,0.21965 -0.411841,0.24712 -0.219649,0.0549 -0.494211,0.0823 -0.274562,0.0549 -0.576582,0.16475 -0.274557,0.10983 -0.604031,0.43929 -0.356933,0.3844 -0.604036,0.63152 -0.219649,0.27456 -0.466753,0.43929 -0.247107,0.16475 -0.60404,0.21964 -0.32947,0.0824 -0.906051,0.0824 -1.180614,0 -1.839562,-0.13728 -0.631485,-0.13729 -1.098243,-0.43931 -0.439303,-0.30201 -0.878597,-0.79625 -0.439299,-0.49419 -1.208067,-1.2355 -0.192192,-0.19219 -0.494212,-0.30204 -0.274566,-0.10979 -0.549123,-0.24708 -0.247108,-0.10983 -0.439299,-0.30204 -0.164737,-0.19218 -0.164737,-0.52164 0,-0.19222 -0.247103,-0.82369 -0.247108,-0.60403 -0.549124,-1.40028 -0.30202,-0.79623 -0.549123,-1.64737 -0.247104,-0.82369 -0.247104,-1.48263 0,-0.63148 0.192191,-1.45517 0.164737,-0.79623 0.439299,-1.34534 0.109825,-0.24712 0.302016,-0.3844 0.219649,-0.13726 0.439299,-0.274537 0.247107,-0.10984 0.466757,-0.21967 0.247103,-0.10981 0.439294,-0.302007 0.274562,-0.27455 0.494212,-0.35693 0.219649,-0.0824 0.604035,-0.0824 1.372809,0 2.169036,0.32947 0.796227,0.329477 1.317892,0.768784 0.549128,0.46673 0.988422,0.93348 0.439299,0.49422 1.153159,0.82369 -0.08237,0.21966 -0.08237,0.54914 0,0.21964 0,0.41182 0.02745,0.19219 0.05491,0.32948 l 0.02745,0.27455 q -0.08237,0.49422 -0.30202,0.96098 -0.192191,0.46677 -0.384382,0.93353 -0.192195,0.49418 -0.356932,0.96092 -0.137283,0.49422 -0.137283,1.0159 0,0.71385 0.411845,1.20808 l 0.356932,0.0275 h 0.219649 q 0.549119,0 1.125697,-0.21966 0.604036,-0.21966 1.098243,-0.60401 0.494215,-0.3844 0.796231,-0.9061 0.32947,-0.49419 0.32947,-1.09823 0,-0.21964 -0.02746,-0.32946 l 0.329475,-0.0275 q 0.384386,0 0.741314,0.10981 0.356932,0.10983 0.741315,0.10983 0.247107,0 0.38439,-0.13728 0.137279,-0.13729 0.219645,-0.32948 0.08237,-0.19219 0.109829,-0.41183 0.05491,-0.21966 0.08236,-0.41186 0.109825,-0.76874 0.274566,-1.48261 0.164733,-0.71385 0.32947,-1.42773 0.164737,-0.68639 0.274562,-1.427697 0.109825,-0.741327 0.109825,-1.537554 0,-0.988404 -0.247104,-1.949361 -0.219649,-0.96098 -0.219649,-1.9494 0,-0.38437 0.08237,-0.76877 0.109829,-0.38439 0.109829,-0.76876 0,-0.79623 -0.302016,-1.510098 -0.274566,-0.741311 -0.274566,-1.537541 0,-0.79623 0.164737,-1.564999 0.164737,-0.76877 0.164737,-1.565 0,-1.262986 -0.192191,-2.498504 -0.192195,-1.262983 -0.192195,-2.553423 0,-0.466754 0.02745,-0.90605 0.02745,-0.439301 0.02745,-0.906055 0,-0.878596 -0.329474,-1.400263 -0.329474,-0.549121 -0.878598,-0.823685 -0.521665,-0.302018 -1.208067,-0.384382 -0.658948,-0.109827 -1.372809,-0.109827 -0.63149,0 -1.235525,0.02745 -0.576574,0.02745 -1.098247,0.02745 -0.521666,0 -1.26298,-0.05492 -0.741319,-0.08236 -1.427721,-0.302016 -0.686402,-0.247101 -1.180613,-0.658944 -0.466753,-0.4393 -0.466753,-1.153157 0,-0.604038 0.30202,-0.960965 0.32947,-0.384385 0.796227,-0.576578 0.466748,-0.192194 0.988422,-0.247107 0.521665,-0.05491 0.96096,-0.05491 1.290438,0 2.525967,-0.05491 1.235526,-0.05491 2.52596,-0.05491 0.219649,0 0.466757,0.02745 0.274562,0.02745 0.329474,0.109823 v -0.384386 q 0.41184,-0.164735 0.823685,-0.192195 0.439299,-0.02745 0.878598,-0.02745 0.302015,0 0.768768,0.05491 0.494211,0.02745 0.960964,0.164737 0.466753,0.109823 0.796227,0.356927 0.356932,0.219651 0.356932,0.631493 0,0.164737 -0.08237,0.32947 -0.08237,0.137281 -0.192195,0.247104 l 1.94939,1.180619 q 0.02745,0.384385 0.02745,0.768764 0,0.356936 0,0.741321 0,1.317896 -0.05491,2.635788 -0.05492,1.317895 -0.05492,2.635792 0,0.54912 0,1.098243 0.02745,0.549124 0.08237,1.098249 0.05491,0.549127 0.219646,1.098247 0.164741,0.549123 0.164741,1.098244 0,0.329472 -0.137283,0.604024 -0.109825,0.27457 -0.274558,0.549121 -0.137287,0.24711 -0.274566,0.494217 -0.109824,0.24711 -0.109824,0.494218 0,0.302012 0.274562,0.302012 0.05491,1.153164 0.08237,2.278867 0.02745,1.125695 0.02745,2.278845 0,0.96098 -0.08237,1.78465 -0.05491,0.79623 -0.302016,1.72974 0,0.0549 -0.02745,0.109827 0,0.0549 0,0.10982 0,0.604037 0.109829,1.208074 0.137278,0.576567 0.30202,1.153144 0.164733,0.576567 0.274557,1.153157 0.137283,0.57657 0.137283,1.18061 z"
         style="font-style:normal;font-variant:normal;font-weight:normal;font-stretch:normal;font-size:177.813px;line-height:1.25;font-family:'Special Elite';-inkscape-font-specification:'Special Elite';letter-spacing:0px;word-spacing:0px;fill:#ffffff;fill-opacity:1;stroke:#ffffff;stroke-width:1.11924;stroke-miterlimit:4;stroke-dasharray:none;stroke-opacity:1"
         id="path1161-4" />
      <path
         d="m 110.42995,74.415348 q -0.0566,0.962075 -0.59422,1.584592 -0.50933,0.622518 -1.27333,0.990371 -0.764,0.367853 -1.66948,0.537629 -0.87719,0.141482 -1.64118,0.169776 -1.04697,0.0566 -1.47141,0.45274 -0.42445,0.39615 -0.70741,1.358221 -0.14148,0.452741 -0.39615,1.103558 -0.25467,0.650815 -0.59422,1.329923 -0.31126,0.650815 -0.65081,1.24504 -0.33956,0.594218 -0.67912,0.905477 0.0283,0.311259 0.14149,0.622518 0.11318,0.311264 0.11318,0.622522 0,0.367852 -0.25467,0.764002 -0.31126,0.509332 -0.42444,0.905478 -0.11318,0.367852 -0.14149,0.735706 -0.0283,0.339552 -0.0566,0.735704 -0.0283,0.367848 -0.198067,0.848885 -0.28297,0.764002 -0.707408,1.471406 -0.424443,0.707407 -0.905485,1.358222 -0.254663,1.18844 -0.565922,2.43348 -0.282963,1.24504 -0.707405,2.46178 -0.424442,1.188434 -0.990368,2.320288 -0.56593,1.103544 -1.358223,2.065624 l -0.424446,-0.0283 h -0.16978 q -0.763997,0 -1.499702,0.22636 -0.735705,0.25467 -1.471406,0.25467 -0.424447,0 -0.67911,-0.16978 -0.226375,-0.14149 -0.396146,-0.39614 -0.16978,-0.22638 -0.311259,-0.53764 -0.113192,-0.28297 -0.311263,-0.56593 v -0.792294 q -0.141484,-0.11318 -0.311259,-0.11318 -0.169775,-0.0283 -0.339554,-0.0283 -0.169776,-0.0283 -0.311259,-0.0566 -0.14148,-0.0566 -0.226371,-0.22638 -0.16978,-0.282947 -0.226367,-0.679104 -0.0283,-0.42444 -0.0566,-0.877177 0,-0.452747 -0.05659,-0.905487 -0.0283,-0.45273 -0.198071,-0.87718 -0.169784,-0.39615 -0.339559,-0.7357 -0.169775,-0.36786 -0.339555,-0.764 -0.198075,-0.42445 -0.282963,-0.90549 -0.05659,-0.48103 -0.113187,-0.96207 -0.05659,-0.48104 -0.14148,-0.933776 -0.08489,-0.481037 -0.311263,-0.905482 -0.226367,-0.367847 -0.424442,-0.65081 -0.198071,-0.282965 -0.396146,-0.56593 -0.16978,-0.282957 -0.339555,-0.594222 -0.141484,-0.311259 -0.226371,-0.763998 -0.594222,-2.716443 -1.471406,-5.291408 -0.877186,-2.603258 -2.348595,-4.951846 -0.339554,0.169775 -0.7357,0.254669 -0.367854,0.05659 -0.764001,0.05659 -0.792297,0 -1.641186,-0.226373 -0.650813,-0.141479 -1.131847,-0.254662 -0.452742,-0.141484 -0.764001,-0.367855 -0.311259,-0.254664 -0.481038,-0.707407 -0.141484,-0.452738 -0.141484,-1.245035 0,-0.763997 0.339555,-1.216742 0.367854,-0.481037 0.905484,-0.735702 0.53763,-0.282963 1.188444,-0.367854 0.679109,-0.113183 1.273335,-0.113183 0.990368,0 1.89585,0.226371 0.933777,0.198072 1.867553,0.198072 0.933777,0 1.839262,-0.08489 0.933776,-0.113185 1.867552,-0.113185 0.198076,0 0.764002,0.08489 0.594217,0.08489 1.216739,0.311257 0.650813,0.198074 1.160143,0.565928 0.537634,0.36785 0.622518,0.905483 0,0.594219 -0.169776,1.245035 -0.169779,0.622516 -0.594221,1.018667 -0.198076,0.198074 -0.622518,0.311256 -0.396146,0.08489 -0.820593,0.169775 -0.39615,0.08489 -0.707405,0.169779 -0.311259,0.08489 -0.339555,0.198076 -0.113183,0.537627 -0.198075,1.160143 -0.05659,0.622519 -0.05659,1.188448 0,0.424445 0.08489,0.650813 0.113183,0.226368 0.226371,0.339556 0.141484,0.113188 0.226371,0.198071 0.113184,0.0566 0.14148,0.198078 0.05659,0.339556 0.113183,0.679112 0.0566,0.311259 0.113184,0.622519 0.0283,0.282963 0.254671,0.679111 0.226371,0.396149 0.481034,0.792291 0.254671,0.396152 0.452742,0.764004 0.198076,0.367852 0.198076,0.565925 0,0.05659 -0.311259,0.141483 -0.311259,0.08489 -0.311259,0.169775 0,0.05659 0.141479,0.141484 0.14148,0.05659 0.311259,0.141481 0.198076,0.05659 0.339555,0.113182 0.169779,0.02829 0.226371,0.02829 v 0.424445 q 0,1.018668 0.282963,1.924144 0.282963,0.905483 0.622518,1.782668 0.36785,0.848885 0.707405,1.726069 0.339563,0.84889 0.424446,1.81097 l 0.367851,0.0283 h 0.141483 q 0.622518,0 0.962077,-0.36785 0.339554,-0.36785 0.594217,-0.82059 0.282963,-0.45274 0.622522,-0.8206 0.339555,-0.39614 0.933776,-0.424438 0.0283,-0.141483 0.0283,-0.396146 0,-0.367855 -0.113184,-0.707411 -0.08489,-0.367851 -0.08489,-0.735701 0,-0.481038 0.141484,-0.707406 0.141483,-0.254666 0.311259,-0.48104 0.169779,-0.254664 0.311258,-0.59422 0.141484,-0.367851 0.141484,-1.103557 0,-0.226369 0.113183,-0.481036 0.113188,-0.254664 0.282963,-0.509334 0.16978,-0.254667 0.339555,-0.481036 0.198075,-0.254665 0.311259,-0.45274 0.424446,-0.622518 0.622517,-1.528001 0.226372,-0.933776 0.311259,-1.895849 0.113188,-0.962076 0.113188,-1.839256 0.0283,-0.905482 0.0283,-1.499705 0,-0.650814 -0.537634,-0.905484 -0.50933,-0.254665 -1.160144,-0.367852 -0.622517,-0.141482 -1.160147,-0.28296 -0.509334,-0.169781 -0.509334,-0.622517 0,-0.198076 0.08489,-0.339558 0.08489,-0.169776 0.198071,-0.31126 0.113188,-0.169775 0.19808,-0.311259 0.08489,-0.169778 0.08489,-0.339556 0,-0.198074 -0.113188,-0.339553 -0.08489,-0.169778 -0.08489,-0.367853 0,-0.452737 0.367855,-0.70741 0.367846,-0.28296 0.87718,-0.424441 0.509335,-0.14148 1.018669,-0.169778 0.53763,-0.05659 0.848888,-0.05659 0.509335,0 0.905477,0.141482 0.39615,0.113186 0.735705,0.282961 0.367857,0.141483 0.707407,0.282963 0.33956,0.113185 0.67911,0.113185 0.28297,0 0.39615,-0.198077 0.31126,-0.424442 0.42444,-0.622514 0.11319,-0.226373 0.25467,-0.311259 0.14148,-0.08489 0.39615,-0.08489 0.25466,-0.02829 0.84888,-0.05659 l 0.99038,-0.02829 q 0.79229,-0.02829 1.61289,0.0566 0.84888,0.0566 1.64118,0.282963 0.82059,0.226369 1.528,0.650814 0.7357,0.424441 1.24504,1.103555 z m -6.45155,-0.820593 q -0.39615,-0.05659 -0.62252,-0.367851 -0.22637,-0.339556 -0.59422,-0.424445 -0.0566,0.08489 -0.0566,0.282966 0,0.311257 0.25466,0.622516 0.28296,0.311259 0.59422,0.311259 0.19807,0 0.28297,-0.113182 0.0849,-0.141482 0.14148,-0.311263 z"
         style="font-style:normal;font-variant:normal;font-weight:normal;font-stretch:normal;font-size:177.813px;line-height:1.25;font-family:'Special Elite';-inkscape-font-specification:'Special Elite';letter-spacing:0px;word-spacing:0px;fill:#ffffff;fill-opacity:1;stroke:#ffffff;stroke-width:1.11924;stroke-miterlimit:4;stroke-dasharray:none;stroke-opacity:1"
         id="path1163-0" />
      <path
         d="m 107.83899,117.78135 q 0,0.21278 -0.0591,0.46103 -0.0473,0.24824 -0.2246,0.3901 -0.0591,0.0591 -0.11822,0.16549 -0.0473,0.10639 -0.0946,0.21278 -0.0355,0.10639 -0.0827,0.18915 -0.0355,0.0828 -0.0709,0.0828 -0.0473,0 -0.0946,-0.0118 -0.0355,-0.0236 -0.0946,-0.0354 l -0.0828,0.0473 q -0.14185,0.17731 -0.40192,0.35463 -0.26006,0.16549 -0.55559,0.30735 -0.29553,0.13004 -0.60288,0.21278 -0.29553,0.0827 -0.52013,0.0827 -0.17732,0 -0.29553,-0.0354 -0.11821,-0.0473 -0.20096,-0.0946 -0.0709,-0.0591 -0.13004,-0.10639 -0.0473,-0.0473 -0.11821,-0.0473 -0.14185,0 -0.28371,0.0946 -0.13003,0.0828 -0.2246,0.0828 -0.0591,0 -0.0709,-0.0591 -0.0118,-0.0709 -0.14185,-0.11821 -0.20096,-0.0709 -0.44921,-0.21279 -0.23642,-0.14185 -0.48467,-0.2837 -0.24824,-0.15368 -0.47284,-0.26007 -0.22461,-0.11821 -0.37828,-0.11821 -0.0473,0 -0.2246,-0.15368 -0.17732,-0.15367 -0.42557,-0.34281 -0.24824,-0.18914 -0.54377,-0.34282 -0.29553,-0.15367 -0.591057,-0.15367 -0.330987,0 -0.520127,0.20096 -0.18914,0.20096 -0.28371,0.48467 h -0.0709 -0.0355 q -0.15368,0 -0.27189,0.0946 -0.11821,0.0946 -0.20096,0.23642 -0.0709,0.14186 -0.10639,0.30735 -0.0355,0.15368 -0.0355,0.29554 0,0.20096 0.0236,0.41374 0.0355,0.20096 0.0355,0.40192 0,0.0709 0,0.14185 0,0.0709 -0.0118,0.13003 -0.14186,-0.0354 -0.29553,-0.0354 -0.15368,0 -0.29553,0.0236 -0.14186,0.0355 -0.29553,0.0355 -0.23642,0 -0.34281,-0.14185 -0.10639,-0.14186 -0.17732,-0.33099 -0.0946,-0.23643 -0.248254,-0.46103 -0.15367,-0.2246 -0.31917,-0.44921 -0.15367,-0.2246 -0.27189,-0.4492 -0.10639,-0.2246 -0.10639,-0.46103 0,-0.29553 0.0236,-0.59106 0.0236,-0.29553 0.0236,-0.60288 0,-0.24824 0.11822,-0.42556 0.13003,-0.17732 0.27188,-0.36646 0.15368,-0.18913 0.27189,-0.42556 0.13003,-0.23642 0.13003,-0.60288 0,-0.0946 0.0473,-0.14185 0.0473,-0.0591 0.106394,-0.11822 0.13004,-0.10639 0.30736,-0.37827 0.18913,-0.27189 0.41374,-0.60288 0.2246,-0.33099 0.47285,-0.67381 0.26006,-0.34282 0.53195,-0.59106 0.0709,-0.0709 0.11821,-0.0946 0.0473,-0.0237 0.10639,-0.0237 0.0591,0 0.118207,0.0118 0.0591,0.0118 0.14186,0.0118 0.11821,0 0.16549,-0.0354 0.0591,-0.0354 0.0828,-0.0828 0.0355,-0.0591 0.0591,-0.11821 0.0236,-0.0591 0.0946,-0.11821 0.11821,-0.0946 0.31917,-0.0828 0.200957,0.0118 0.366457,-0.0591 0.11821,-0.0591 0.2246,-0.13003 0.10639,-0.0828 0.20096,-0.15368 0.10639,-0.0828 0.21278,-0.14185 0.11822,-0.0709 0.24825,-0.10639 0.43738,-0.11822 0.87477,-0.30736 0.43738,-0.20095 0.82748,-0.46102 0.40192,-0.27189 0.73291,-0.60288 0.331,-0.34281 0.5556,-0.74474 0.0355,-0.0709 0.10639,-0.16549 0.0827,-0.0946 0.15367,-0.18914 0.0828,-0.10639 0.13004,-0.20096 0.0591,-0.10639 0.0591,-0.17732 0,-0.0709 -0.0236,-0.13004 -0.0236,-0.0709 -0.0236,-0.14185 0,-0.0827 0.0591,-0.11821 0.0591,-0.0354 0.13003,-0.0709 0.11821,-0.0473 0.18914,-0.15367 0.0828,-0.10639 0.11821,-0.2246 0.0473,-0.13004 0.0591,-0.27189 0.0236,-0.14186 0.0236,-0.26007 0,-0.11821 -0.0236,-0.26007 -0.0118,-0.14185 -0.0591,-0.27188 -0.0355,-0.13004 -0.11821,-0.23643 -0.0827,-0.11821 -0.20096,-0.16549 -0.0355,-0.0237 -0.10639,-0.0473 -0.0591,-0.0237 -0.0591,-0.0828 0,-0.0473 0.0236,-0.0827 0.0236,-0.0473 0.0236,-0.0946 0,-0.0828 -0.0946,-0.1655 -0.0828,-0.0946 -0.21279,-0.17732 -0.11821,-0.0946 -0.23642,-0.17732 -0.11821,-0.0946 -0.1655,-0.18914 -0.0591,-0.0946 -0.2837,-0.2246 -0.22461,-0.14185 -0.49649,-0.26007 -0.26007,-0.13003 -0.50831,-0.21278 -0.24825,-0.0946 -0.35464,-0.0946 -0.41374,0 -0.79202,0.15368 -0.37828,0.14185 -0.7802,0.2246 -0.2837,0.0591 -0.756547,0.11821 -0.47285,0.0473 -0.92205,0.17732 -0.437387,0.13003 -0.768377,0.37828 -0.31917,0.24824 -0.31917,0.68562 0,0.20096 0.11821,0.37828 0.11821,0.1655 0.29553,0.34282 0.17732,0.16549 0.3901,0.33099 0.21278,0.1655 0.390097,0.35464 0.17731,0.18913 0.29553,0.40192 0.11821,0.20096 0.11821,0.4492 0,0.30735 -0.20096,0.53196 -0.18914,0.21278 -0.472847,0.35463 -0.27189,0.14185 -0.59106,0.21278 -0.30735,0.0591 -0.55559,0.0591 -0.29553,0 -0.54378,-0.0828 -0.1655,-0.0473 -0.26007,-0.0591 -0.0828,-0.0237 -0.141854,-0.0473 -0.0473,-0.0354 -0.0709,-0.10639 -0.0236,-0.0828 -0.0591,-0.26007 -0.0355,-0.20096 -0.11821,-0.35463 -0.0828,-0.1655 -0.1655,-0.31917 -0.0709,-0.1655 -0.13003,-0.33099 -0.0591,-0.17732 -0.0591,-0.40192 0,-0.27189 0.13003,-0.67381 0.14186,-0.40192 0.34282,-0.81566 0.20095,-0.41375 0.425564,-0.76838 0.23642,-0.36646 0.43738,-0.5556 0.0827,-0.0828 0.13003,-0.17732 0.0473,-0.10639 0.0946,-0.18913 0.0591,-0.0946 0.14186,-0.15368 0.0828,-0.0591 0.24824,-0.0591 h 0.21279 q 0.16549,0 0.27188,-0.0473 0.10639,-0.0473 0.1655,-0.21278 0.0355,-0.10639 0.16549,-0.1655 0.130037,-0.0591 0.283707,-0.0827 0.15368,-0.0237 0.30735,-0.0355 0.1655,-0.0118 0.26007,-0.0118 0.236417,-0.0118 0.449197,-0.0709 0.22461,-0.0591 0.44921,-0.13003 0.2246,-0.0709 0.43738,-0.11821 0.22461,-0.0591 0.46103,-0.0591 l 0.18914,0.0118 q 0.99298,0.0473 1.65497,0.1655 0.66198,0.11821 1.15847,0.40191 0.49649,0.28371 0.91023,0.79202 0.41374,0.50832 0.93387,1.32398 0.11822,0.20096 0.20097,0.4492 0.0946,0.23643 0.30735,0.3901 -0.14186,0.29553 -0.17732,0.6147 -0.0236,0.30735 -0.0473,0.62652 -0.0118,0.21279 -0.0591,0.37828 -0.0355,0.15368 -0.0946,0.29553 -0.0591,0.14186 -0.14186,0.28371 -0.0709,0.14185 -0.15367,0.33099 -0.0591,0.13003 -0.0827,0.2246 -0.0236,0.0828 -0.0591,0.1655 -0.0236,0.0828 -0.0828,0.15368 -0.0591,0.0591 -0.20096,0.13003 -0.14186,0.0828 -0.20096,0.18914 -0.0591,0.10639 -0.0946,0.2246 -0.0355,0.10639 -0.0946,0.21278 -0.0473,0.0946 -0.18914,0.14186 -0.28371,0.11821 -0.54378,0.30735 -0.24824,0.18914 -0.49649,0.3901 -0.23642,0.20096 -0.48466,0.37827 -0.24825,0.17732 -0.54378,0.24825 -0.33099,0.0828 -0.62652,0.24824 -0.29553,0.1655 -0.57924,0.34282 -0.28371,0.17732 -0.57924,0.34281 -0.28371,0.1655 -0.6147,0.24825 -0.13003,0.0355 -0.21278,0.10639 -0.0828,0.0591 -0.14186,0.15367 -0.0591,0.0827 -0.11821,0.17732 -0.0591,0.0946 -0.14185,0.17732 -0.13003,0.13003 -0.248247,0.16549 -0.10639,0.0354 -0.2246,0.0591 -0.11821,0.0237 -0.24824,0.0946 -0.11821,0.0591 -0.26007,0.26007 -0.0709,0.10639 -0.18914,0.1655 -0.118207,0.0591 -0.224597,0.11821 -0.10639,0.0591 -0.18914,0.14185 -0.0709,0.0709 -0.0709,0.21278 0,0.10639 -0.0591,0.18914 -0.0473,0.0709 -0.10639,0.15367 -0.0591,0.0709 -0.11821,0.15368 -0.0473,0.0709 -0.0473,0.1655 0,0.0591 0.0236,0.14185 0.0236,0.0828 0.0946,0.17732 0.0828,0.0828 0.21278,0.14185 0.13003,0.0591 0.34281,0.0591 0.212777,0 0.425567,-0.0354 0.21278,-0.0355 0.42556,-0.0355 0.17732,0 0.330987,0.0591 0.1655,0.0473 0.31918,0.10639 0.15367,0.0591 0.30735,0.11822 0.15367,0.0473 0.30735,0.0473 0.29553,0 0.39009,-0.31918 0.0473,0.0237 0.0709,0.13003 0.0236,0.1064 0.0355,0.22461 0.0236,0.10639 0.0473,0.21278 0.0236,0.0946 0.0591,0.0946 0.0828,-0.0473 0.11822,-0.15368 0.0355,-0.11821 0.15367,-0.11821 0.0709,0 0.13003,0.0709 0.0709,0.0709 0.14186,0.15367 0.0828,0.0828 0.17732,0.15368 0.10639,0.0709 0.24824,0.0709 0.23643,0 0.50831,0.18914 0.28371,0.17732 0.57924,0.40192 0.29553,0.21278 0.59106,0.40192 0.30735,0.17732 0.59106,0.17732 0.30735,0 0.50831,-0.13003 0.21278,-0.14186 0.37828,-0.34282 0.1655,-0.20096 0.29553,-0.43738 0.14185,-0.24825 0.29553,-0.44921 0.15367,-0.20096 0.35463,-0.33099 0.20096,-0.14186 0.48467,-0.14186 0.44921,0 0.57924,0.23643 0.14185,0.2246 0.14185,0.6147 z m -3.61728,-13.32247 h -0.50831 q 0.0473,0 0.0473,0.0591 0,0.0591 -0.0355,0.10639 -0.0236,-0.0237 -0.0236,-0.0591 0,-0.0118 0,-0.0118 0.0118,0 0.0118,-0.0118 v -0.0827 l -0.0118,0.1655 q -0.0236,0.17731 0.0591,0.33099 0.0828,0.15368 0.28371,0.17732 0.0355,-0.14186 0.10639,-0.27189 0.0827,-0.13003 0.0827,-0.28371 z"
         style="font-style:normal;font-variant:normal;font-weight:normal;font-stretch:normal;font-size:177.813px;line-height:1.25;font-family:'Special Elite';-inkscape-font-specification:'Special Elite';letter-spacing:0px;word-spacing:0px;fill:#ffffff;fill-opacity:1;stroke:#ffffff;stroke-width:2;stroke-miterlimit:4;stroke-dasharray:none;stroke-opacity:1"
         id="path1165" />
    </g>
  </g>
</svg>
